PathFileType	4	(X/Y/Z)	 2.5Hzhigh3min.trc
DataRate	CameraRate	NumFrames	NumMarkers	Units	OrigDataRate	OrigDataStartFrame	OrigNumFrames
200	200	9	35	m	200	626	1000
Frame#	Time	C7			LSH			RSH			MAN			RASI			LASI			HIPR			HIPL			RPSI			LPSI			COX			RTHI1			RTHI2			RTHI3			RTHI4			RSHA1			RSHA2			RSHA3			RSHA4			RHEEL			RMET5			RMET1			RTOE			LTHI1			LTHI2			LTHI3			LTHI4			LSHA1			LSHA2			LSHA3			LSHA4			LHEEL			LMET5			LMET1			LTOE			
		X1	Y1	Z1	X2	Y2	Z2	X3	Y3	Z3	X4	Y4	Z4	X5	Y5	Z5	X6	Y6	Z6	X7	Y7	Z7	X8	Y8	Z8	X9	Y9	Z9	X10	Y10	Z10	X11	Y11	Z11	X12	Y12	Z12	X13	Y13	Z13	X14	Y14	Z14	X15	Y15	Z15	X16	Y16	Z16	X17	Y17	Z17	X18	Y18	Z18	X19	Y19	Z19	X20	Y20	Z20	X21	Y21	Z21	X22	Y22	Z22	X23	Y23	Z23	X24	Y24	Z24	X25	Y25	Z25	X26	Y26	Z26	X27	Y27	Z27	X28	Y28	Z28	X29	Y29	Z29	X30	Y30	Z30	X31	Y31	Z31	X32	Y32	Z32	X33	Y33	Z33	X34	Y34	Z34	X35	Y35	Z35	
626	3.1300	-0.282011	1.373603	-0.533296	-0.224156	1.388304	-0.699838	-0.218436	1.349123	-0.370615	-0.143749	1.330234	-0.534522	-0.107234	0.947721	-0.428346	-0.112419	0.938888	-0.658985	-0.176564	0.986542	-0.398170	-0.168638	0.993758	-0.685319	-0.270652	0.967034	-0.490182	-0.271075	0.966887	-0.590032	-0.269697	0.978420	-0.538713	-0.178237	0.743385	-0.364389	-0.150553	0.690715	-0.365046	-0.092323	0.719250	-0.371560	-0.114237	0.776469	-0.371852	-0.195536	0.356872	-0.360442	-0.217730	0.320353	-0.367373	-0.163387	0.298076	-0.383509	-0.146305	0.334472	-0.380151	-0.338807	0.104616	-0.419841	-0.198202	0.029003	-0.369098	-0.169526	0.035610	-0.448178	-0.143103	0.027965	-0.441475	-0.192466	0.744596	-0.716805	-0.169581	0.687291	-0.717229	-0.107862	0.706021	-0.715869	-0.121590	0.764736	-0.715510	-0.234464	0.342659	-0.708881	-0.251601	0.305936	-0.705349	-0.192710	0.284908	-0.713578	-0.182835	0.327756	-0.716234	-0.348668	0.099146	-0.664271	-0.217813	0.030265	-0.724091	-0.173229	0.037296	-0.659115	-0.150385	0.028334	-0.659568	
627	3.1350	-0.282076	1.379008	-0.533409	-0.224486	1.394075	-0.699587	-0.218533	1.354994	-0.370900	-0.144079	1.335911	-0.534658	-0.106710	0.952829	-0.428398	-0.112087	0.944293	-0.658838	-0.176080	0.991838	-0.398230	-0.168536	0.999462	-0.684956	-0.270022	0.972380	-0.489929	-0.270562	0.972397	-0.589807	-0.269280	0.983653	-0.538458	-0.178181	0.748422	-0.364210	-0.150859	0.695582	-0.365106	-0.092501	0.723714	-0.372231	-0.114015	0.781091	-0.372154	-0.197038	0.360964	-0.360272	-0.218892	0.324220	-0.367072	-0.164289	0.302373	-0.383114	-0.147605	0.338960	-0.379897	-0.337113	0.107476	-0.419102	-0.197730	0.029375	-0.369235	-0.169393	0.035618	-0.448185	-0.143197	0.027985	-0.441546	-0.191889	0.750031	-0.717140	-0.169301	0.692617	-0.717326	-0.107518	0.711019	-0.715081	-0.120929	0.769777	-0.714842	-0.235747	0.346568	-0.709249	-0.252548	0.309728	-0.705932	-0.193397	0.289296	-0.713776	-0.183935	0.332247	-0.716327	-0.347110	0.102282	-0.665207	-0.217133	0.030702	-0.724108	-0.172999	0.037344	-0.659007	-0.150411	0.028373	-0.659453	
628	3.1400	-0.282137	1.384540	-0.533553	-0.224810	1.399946	-0.699339	-0.218641	1.361080	-0.371222	-0.144371	1.341755	-0.534813	-0.106226	0.958110	-0.428482	-0.111764	0.949889	-0.658664	-0.175553	0.997479	-0.398366	-0.168476	1.005550	-0.684601	-0.269377	0.977906	-0.489676	-0.270042	0.978091	-0.589575	-0.268860	0.989038	-0.538191	-0.178219	0.753596	-0.364037	-0.151272	0.700597	-0.365118	-0.092768	0.728329	-0.372753	-0.113873	0.785838	-0.372380	-0.198604	0.365188	-0.360035	-0.220085	0.328218	-0.366715	-0.165212	0.306845	-0.382613	-0.148981	0.343591	-0.379607	-0.335303	0.110468	-0.418429	-0.197230	0.029765	-0.369394	-0.169241	0.035624	-0.448206	-0.143302	0.028010	-0.441611	-0.191330	0.755634	-0.717570	-0.169026	0.698103	-0.717496	-0.107189	0.716174	-0.714383	-0.120295	0.774991	-0.714291	-0.237120	0.350677	-0.709686	-0.253555	0.313666	-0.706493	-0.194167	0.293851	-0.714095	-0.185136	0.336901	-0.716553	-0.345382	0.105539	-0.666004	-0.216389	0.031202	-0.724080	-0.172715	0.037433	-0.658865	-0.150417	0.028425	-0.659340	
629	3.1450	-0.282195	1.390150	-0.533728	-0.225119	1.405864	-0.699092	-0.218742	1.367328	-0.371556	-0.144666	1.347735	-0.534983	-0.105787	0.963508	-0.428595	-0.111453	0.955618	-0.658465	-0.174949	1.003396	-0.398580	-0.168408	1.011954	-0.684254	-0.268712	0.983580	-0.489429	-0.269511	0.983931	-0.589343	-0.268436	0.994545	-0.537924	-0.178360	0.758869	-0.363849	-0.151798	0.705705	-0.365093	-0.093123	0.733037	-0.373065	-0.113826	0.790681	-0.372523	-0.200242	0.369499	-0.359754	-0.221317	0.332298	-0.366308	-0.166180	0.311455	-0.382004	-0.150417	0.348354	-0.379240	-0.333374	0.113557	-0.417864	-0.196713	0.030160	-0.369574	-0.169059	0.035632	-0.448243	-0.143417	0.028042	-0.441668	-0.190836	0.761358	-0.718037	-0.168819	0.703707	-0.717718	-0.106934	0.721448	-0.713801	-0.119748	0.780352	-0.713888	-0.238592	0.354913	-0.710135	-0.254633	0.317701	-0.707005	-0.195030	0.298525	-0.714525	-0.186448	0.341678	-0.716902	-0.343486	0.108891	-0.666643	-0.215588	0.031758	-0.724006	-0.172377	0.037565	-0.658690	-0.150405	0.028493	-0.659240	
630	3.1500	-0.282249	1.395789	-0.533931	-0.225407	1.411782	-0.698848	-0.218844	1.373657	-0.371948	-0.144970	1.353809	-0.535165	-0.105398	0.968969	-0.428737	-0.111161	0.961414	-0.658245	-0.174258	1.009519	-0.398868	-0.168307	1.018589	-0.683905	-0.268025	0.989361	-0.489199	-0.268967	0.989876	-0.589125	-0.268004	1.000140	-0.537662	-0.178600	0.764223	-0.363641	-0.152441	0.710878	-0.365021	-0.093579	0.737789	-0.373181	-0.113872	0.795579	-0.372583	-0.201956	0.373873	-0.359431	-0.222582	0.336429	-0.365846	-0.167180	0.316147	-0.381297	-0.151891	0.353187	-0.378765	-0.331264	0.116666	-0.417379	-0.196178	0.030559	-0.369776	-0.168872	0.035654	-0.448278	-0.143539	0.028083	-0.441705	-0.190462	0.767170	-0.718506	-0.168736	0.709393	-0.717974	-0.106803	0.726806	-0.713357	-0.119331	0.785809	-0.713625	-0.240159	0.359199	-0.710549	-0.255776	0.321792	-0.707444	-0.195980	0.303281	-0.715046	-0.187874	0.346531	-0.717353	-0.341425	0.112293	-0.667120	-0.214729	0.032381	-0.723879	-0.171997	0.037739	-0.658486	-0.150382	0.028574	-0.659171	
631	3.1550	-0.282299	1.401413	-0.534157	-0.225673	1.417653	-0.698601	-0.218944	1.380015	-0.372392	-0.145264	1.359915	-0.535366	-0.105042	0.974431	-0.428898	-0.110886	0.967220	-0.658000	-0.173486	1.015771	-0.399213	-0.168151	1.025363	-0.683548	-0.267315	0.995216	-0.488990	-0.268404	0.995890	-0.588929	-0.267562	1.005787	-0.537418	-0.178949	0.769624	-0.363437	-0.153202	0.716092	-0.364906	-0.094142	0.742561	-0.373168	-0.114013	0.800494	-0.372568	-0.203757	0.378268	-0.359088	-0.223886	0.340571	-0.365348	-0.168217	0.320894	-0.380490	-0.153405	0.358062	-0.378184	-0.328988	0.119801	-0.417025	-0.195634	0.030953	-0.369991	-0.168681	0.035692	-0.448306	-0.143663	0.028143	-0.441705	-0.190251	0.773039	-0.718951	-0.168827	0.715139	-0.718275	-0.106837	0.732208	-0.713065	-0.119077	0.791307	-0.713468	-0.241811	0.363491	-0.710919	-0.256973	0.325888	-0.707799	-0.196998	0.308075	-0.715629	-0.189401	0.351411	-0.717878	-0.339206	0.115728	-0.667449	-0.213816	0.033074	-0.723699	-0.171589	0.037938	-0.658266	-0.150356	0.028672	-0.659150	
632	3.1600	-0.282346	1.406986	-0.534399	-0.225914	1.423432	-0.698350	-0.219028	1.386357	-0.372876	-0.145510	1.365989	-0.535600	-0.104721	0.979841	-0.429074	-0.110627	0.972975	-0.657739	-0.172641	1.022078	-0.399606	-0.167923	1.032185	-0.683170	-0.266580	1.001108	-0.488810	-0.267822	1.001938	-0.588767	-0.267106	1.011475	-0.537190	-0.179399	0.775033	-0.363212	-0.154070	0.721302	-0.364726	-0.094788	0.747347	-0.372929	-0.114244	0.805398	-0.372483	-0.205653	0.382632	-0.358751	-0.225233	0.344696	-0.364816	-0.169285	0.325652	-0.379584	-0.154967	0.362951	-0.377498	-0.326556	0.122962	-0.416809	-0.195093	0.031340	-0.370209	-0.168482	0.035753	-0.448302	-0.143781	0.028220	-0.441644	-0.190225	0.778918	-0.719333	-0.169115	0.720902	-0.718594	-0.107059	0.737623	-0.712932	-0.118998	0.796806	-0.713402	-0.243533	0.367747	-0.711233	-0.258209	0.329925	-0.708067	-0.198071	0.312857	-0.716249	-0.191015	0.356279	-0.718446	-0.336834	0.119164	-0.667680	-0.212847	0.033837	-0.723467	-0.171169	0.038170	-0.658059	-0.150342	0.028797	-0.659205	
633	3.1650	-0.282392	1.412470	-0.534655	-0.226119	1.429095	-0.698092	-0.219092	1.392628	-0.373403	-0.145891	1.372047	-0.535833	-0.104434	0.985152	-0.429257	-0.110383	0.978620	-0.657466	-0.171736	1.028364	-0.400030	-0.167619	1.038974	-0.682766	-0.265815	1.006999	-0.488664	-0.267213	1.007978	-0.588636	-0.266639	1.017181	-0.536995	-0.179947	0.780431	-0.362992	-0.155036	0.726482	-0.364485	-0.095545	0.752063	-0.372648	-0.114567	0.810269	-0.372333	-0.207627	0.386990	-0.358412	-0.226634	0.348758	-0.364282	-0.170385	0.330379	-0.378583	-0.156572	0.367839	-0.376690	-0.323984	0.126137	-0.416710	-0.194558	0.031717	-0.370424	-0.168269	0.035854	-0.448249	-0.143881	0.028326	-0.441511	-0.190396	0.784772	-0.719623	-0.169616	0.726658	-0.718938	-0.107477	0.743028	-0.712952	-0.119107	0.802266	-0.713388	-0.245302	0.371879	-0.711430	-0.259460	0.333858	-0.708250	-0.199170	0.317595	-0.716894	-0.192695	0.361101	-0.719022	-0.334329	0.122583	-0.667851	-0.211827	0.034669	-0.723201	-0.170756	0.038424	-0.657872	-0.150346	0.028959	-0.659352	
634	3.1700	-0.282436	1.417832	-0.534918	-0.226289	1.434607	-0.697830	-0.219167	1.398769	-0.374026	-0.146328	1.378008	-0.536065	-0.104175	0.990325	-0.429451	-0.110151	0.984109	-0.657184	-0.170794	1.034548	-0.400469	-0.167248	1.045648	-0.682343	-0.265026	1.012851	-0.488556	-0.266576	1.013977	-0.588540	-0.266159	1.022873	-0.536841	-0.180586	0.785770	-0.362792	-0.156099	0.731603	-0.364168	-0.096408	0.756711	-0.372336	-0.114972	0.815072	-0.372129	-0.209680	0.391292	-0.358093	-0.228081	0.352744	-0.363763	-0.171517	0.335041	-0.377511	-0.158240	0.372678	-0.375802	-0.321278	0.129320	-0.416689	-0.194022	0.032087	-0.370635	-0.168050	0.036005	-0.448128	-0.143949	0.028464	-0.441289	-0.190772	0.790580	-0.719843	-0.170319	0.732373	-0.719291	-0.108088	0.748390	-0.713113	-0.119405	0.807660	-0.713424	-0.247103	0.375898	-0.711547	-0.260702	0.337655	-0.708341	-0.200272	0.322247	-0.717546	-0.194422	0.365836	-0.719577	-0.331713	0.125967	-0.667992	-0.210747	0.035585	-0.722905	-0.170355	0.038711	-0.657731	-0.150366	0.029168	-0.659616	
